<svg version="1.1" xmlns="http://www.w3.org/2000/svg" xmlns:xlink="http://www.w3.org/1999/xlink" width="970" height="34" viewBox="0,0,256,8.96875"><g fill="#be4a8a" fill-rule="nonzero" stroke="none" stroke-width="1" stroke-linecap="butt" stroke-linejoin="miter" stroke-miterlimit="10" stroke-dasharray="" stroke-dashoffset="0" font-family="none" font-weight="none" font-size="none" text-anchor="none" style="mix-blend-mode: normal"><g transform="translate(0.00752,0.1132) scale(0.26392,0.26392)"><path d="M15.4182,-0.00001l-15.4182,32.66971l0.67003,0.4442l15.41817,-32.66973z"></path><path d="M30.2649,0.00024l-15.4182,32.66966l0.67,0.4442l15.4182,-32.66969z"></path><path d="M45.1077,0.00061l-15.4182,32.66969l0.67,0.4442l15.4182,-32.66972z"></path><path d="M59.9543,0.00097l-15.4182,32.66973l0.6701,0.4441l15.4182,-32.66965z"></path><path d="M74.7971,0.00121l-15.4182,32.66969l0.67,0.4442l15.4183,-32.66971z"></path><path d="M89.6399,0.00159l-15.4182,32.66971l0.67,0.4441l15.4182,-32.66964z"></path><path d="M104.487,0.00195l-15.4182,32.66965l0.6701,0.4442l15.4181,-32.66968z"></path><path d="M119.33,0.00219l-15.418,32.66971l0.67,0.4442l15.418,-32.66973z"></path><path d="M134.177,0.00243l-15.419,32.66967l0.67,0.4442l15.419,-32.66969z"></path><path d="M149.017,0.00683l-15.418,32.66967l0.67,0.4442l15.418,-32.66969z"></path><path d="M163.861,0.00707l-15.419,32.66973l0.67,0.4441l15.419,-32.66965z"></path><path d="M178.707,0.00744l-15.418,32.66966l0.67,0.4442l15.418,-32.66968z"></path><path d="M193.55,0.00768l-15.418,32.66972l0.67,0.4441l15.418,-32.66964z"></path><path d="M208.397,0.00805l-15.418,32.66965l0.67,0.4442l15.418,-32.66967z"></path><path d="M223.239,0.00843l-15.418,32.66967l0.67,0.4442l15.419,-32.66969z"></path><path d="M238.082,0.00865l-15.418,32.66965l0.67,0.4442l15.418,-32.66967z"></path><path d="M252.929,0.00902l-15.418,32.66968l0.67,0.4442l15.418,-32.66971z"></path><path d="M267.772,0.00928l-15.418,32.66972l0.67,0.4441l15.418,-32.66964z"></path><path d="M282.615,0.00965l-15.418,32.66965l0.67,0.4442l15.418,-32.66967z"></path><path d="M297.462,0.00987l-15.419,32.66973l0.67,0.4441l15.419,-32.66965z"></path><path d="M312.304,0.01026l-15.418,32.66964l0.67,0.4442l15.418,-32.66966z"></path><path d="M327.151,0.0105l-15.418,32.6697l0.67,0.4442l15.418,-32.66972z"></path><path d="M341.994,0.01085l-15.418,32.66965l0.67,0.4442l15.418,-32.66968z"></path><path d="M356.837,0.01121l-15.419,32.66969l0.67,0.4442l15.419,-32.66971z"></path><path d="M371.683,0.01148l-15.418,32.66972l0.67,0.4441l15.418,-32.66964z"></path><path d="M387.772,-0.00001l-15.418,32.66971l0.67,0.4442l15.418,-32.66973z"></path><path d="M402.618,0.00024l-15.418,32.66966l0.67,0.4442l15.418,-32.66969z"></path><path d="M417.461,0.00061l-15.418,32.66969l0.67,0.4442l15.418,-32.66972z"></path><path d="M432.308,0.00097l-15.418,32.66973l0.67,0.4441l15.418,-32.66965z"></path><path d="M447.151,0.00121l-15.419,32.66969l0.67,0.4442l15.419,-32.66971z"></path><path d="M461.993,0.00159l-15.418,32.66971l0.67,0.4441l15.418,-32.66964z"></path><path d="M476.841,0.00195l-15.419,32.66965l0.67,0.4442l15.419,-32.66968z"></path><path d="M491.683,0.00219l-15.418,32.66971l0.67,0.4442l15.418,-32.66973z"></path><path d="M506.53,0.00243l-15.418,32.66967l0.67,0.4442l15.418,-32.66969z"></path><path d="M521.371,0.00683l-15.418,32.66967l0.67,0.4442l15.418,-32.66969z"></path><path d="M536.214,0.00707l-15.418,32.66973l0.67,0.4441l15.418,-32.66965z"></path><path d="M551.06,0.00744l-15.418,32.66966l0.67,0.4442l15.418,-32.66968z"></path><path d="M565.904,0.00768l-15.419,32.66972l0.67,0.4441l15.419,-32.66964z"></path><path d="M580.75,0.00805l-15.418,32.66965l0.67,0.4442l15.418,-32.66967z"></path><path d="M595.593,0.00843l-15.418,32.66967l0.67,0.4442l15.418,-32.66969z"></path><path d="M610.436,0.00865l-15.418,32.66965l0.67,0.4442l15.418,-32.66967z"></path><path d="M625.282,0.00902l-15.418,32.66968l0.67,0.4442l15.419,-32.66971z"></path><path d="M640.125,0.00928l-15.418,32.66972l0.67,0.4441l15.418,-32.66964z"></path><path d="M654.969,0.00965l-15.419,32.66965l0.67,0.4442l15.419,-32.66967z"></path><path d="M669.815,0.00987l-15.418,32.66973l0.67,0.4441l15.418,-32.66965z"></path><path d="M684.658,0.01026l-15.418,32.66964l0.67,0.4442l15.418,-32.66966z"></path><path d="M699.505,0.0105l-15.419,32.6697l0.67,0.4442l15.419,-32.66972z"></path><path d="M714.347,0.01085l-15.418,32.66965l0.67,0.4442l15.418,-32.66968z"></path><path d="M729.19,0.01121l-15.418,32.66969l0.67,0.4442l15.418,-32.66971z"></path><path d="M744.037,0.01148l-15.418,32.66972l0.67,0.4441l15.418,-32.66964z"></path><path d="M654.969,0.00965l-15.419,32.66965l0.67,0.4442l15.419,-32.66967z"></path><path d="M669.815,0.00987l-15.418,32.66973l0.67,0.4441l15.418,-32.66965z"></path><path d="M684.658,0.01026l-15.418,32.66964l0.67,0.4442l15.418,-32.66966z"></path><path d="M699.505,0.0105l-15.419,32.6697l0.67,0.4442l15.419,-32.66972z"></path><path d="M714.347,0.01085l-15.418,32.66965l0.67,0.4442l15.418,-32.66968z"></path><path d="M729.19,0.01121l-15.418,32.66969l0.67,0.4442l15.418,-32.66971z"></path><path d="M744.037,0.01148l-15.418,32.66972l0.67,0.4441l15.418,-32.66964z"></path><path d="M654.969,0.00965l-15.419,32.66965l0.67,0.4442l15.419,-32.66967z"></path><path d="M669.815,0.00987l-15.418,32.66973l0.67,0.4441l15.418,-32.66965z"></path><path d="M684.658,0.01026l-15.418,32.66964l0.67,0.4442l15.418,-32.66966z"></path><path d="M699.505,0.0105l-15.419,32.6697l0.67,0.4442l15.419,-32.66972z"></path><path d="M714.347,0.01085l-15.418,32.66965l0.67,0.4442l15.418,-32.66968z"></path><path d="M729.19,0.01121l-15.418,32.66969l0.67,0.4442l15.418,-32.66971z"></path><path d="M744.037,0.01148l-15.418,32.66972l0.67,0.4441l15.418,-32.66964z"></path><path d="M654.969,0.00965l-15.419,32.66965l0.67,0.4442l15.419,-32.66967z"></path><path d="M669.815,0.00987l-15.418,32.66973l0.67,0.4441l15.418,-32.66965z"></path><path d="M684.658,0.01026l-15.418,32.66964l0.67,0.4442l15.418,-32.66966z"></path><path d="M699.505,0.0105l-15.419,32.6697l0.67,0.4442l15.419,-32.66972z"></path><path d="M714.347,0.01085l-15.418,32.66965l0.67,0.4442l15.418,-32.66968z"></path><path d="M729.19,0.01121l-15.418,32.66969l0.67,0.4442l15.418,-32.66971z"></path><path d="M744.037,0.01148l-15.418,32.66972l0.67,0.4441l15.418,-32.66964z"></path><path d="M760.125,0.00574l-15.418,32.66966l0.67,0.4442l15.418,-32.66968z"></path><path d="M776.214,0.00572l-15.419,32.66968l0.67,0.4442l15.419,-32.6697z"></path><path d="M792.302,0.00574l-15.418,32.66966l0.67,0.4442l15.418,-32.66968z"></path><path d="M808.39,0.00574l-15.418,32.66966l0.67,0.4442l15.418,-32.66968z"></path><path d="M824.478,0.00572l-15.418,32.66968l0.67,0.4442l15.418,-32.6697z"></path><path d="M840.567,0.00572l-15.419,32.66968l0.67,0.4442l15.419,-32.6697z"></path><path d="M856.655,0.00574l-15.418,32.66966l0.67,0.4442l15.418,-32.66968z"></path><path d="M872.743,0.00574l-15.418,32.66966l0.67,0.4442l15.418,-32.66968z"></path><path d="M888.831,0.00572l-15.418,32.66968l0.67,0.4442l15.418,-32.6697z"></path><path d="M904.92,0.00574l-15.419,32.66966l0.67,0.4442l15.419,-32.66968z"></path><path d="M921.008,0.00574l-15.418,32.66966l0.67,0.4442l15.418,-32.66968z"></path><path d="M937.096,0.00572l-15.418,32.66968l0.67,0.4442l15.418,-32.6697z"></path><path d="M953.184,0.00572l-15.418,32.66968l0.67,0.4442l15.418,-32.6697z"></path><path d="M969.273,0.00574l-15.419,32.66966l0.671,0.4442l15.418,-32.66968z"></path></g></g></svg>