<svg version="1.1" xmlns="http://www.w3.org/2000/svg" xmlns:xlink="http://www.w3.org/1999/xlink" width="224" height="133" viewBox="0,0,256,152"><g fill="#d396b4" fill-rule="evenodd" stroke="none" stroke-width="1" stroke-linecap="butt" stroke-linejoin="miter" stroke-miterlimit="10" stroke-dasharray="" stroke-dashoffset="0" font-family="none" font-weight="none" font-size="none" text-anchor="none" style="mix-blend-mode: normal"><g transform="translate(-0.00032,-0.00018)"><g><g transform="translate(0.00001,0.42837) scale(1.14286,1.14286)"><path d="M93.0641,132.125v-5.678h-4.6532v5.678h-30.2458h-41.7363c-9.07338,0 -16.42883,-7.386 -16.42882,-16.497c0,-9 7.60722,-15.9959 15.44942,-20.3543c10.2101,-5.6743 17.123,-16.6007 17.123,-29.1484c0,-12.5476 -6.9129,-23.474 -17.123,-29.1483c-7.84219,-4.3584 -15.44942,-11.354 -15.44942,-20.3545c0,-9.11115 7.35542,-16.49716 16.42882,-16.49716h41.7363h30.2458v5.67859h4.6533v-5.67859h16.8678h4.136h9.888l83.615,0.00001c9.074,0 16.429,7.38601 16.429,16.49714c0,9.0005 -7.607,15.9961 -15.449,20.3545c-10.211,5.6743 -17.123,16.6007 -17.123,29.1484c0,12.5476 6.912,23.474 17.123,29.1483c7.842,4.3584 15.449,11.3543 15.449,20.3543c0,9.111 -7.355,16.497 -16.429,16.497h-83.615h-9.888h-4.136zM93.0641,117.167v-9.28h-4.6532v9.28zM93.0642,98.6063v-9.2803h-4.6533v9.2803zM93.0642,80.0458v-9.2802h-4.6533v9.2802zM93.0642,61.4853v-9.2802h-4.6533v9.2802zM93.0642,42.9249v-9.2803h-4.6533v9.2803zM93.0642,24.3644v-9.2802h-4.6533v9.2802z"></path></g></g></g></g></svg>